<svg width="53" height="47" viewBox="0 0 53 47" fill="none" xmlns="http://www.w3.org/2000/svg">
<path d="M47.84 30.8436L43.4455 32.2031L37.6267 13.3951L26.937 25.5344L11.2597 21.5525L17.0785 40.3605L12.684 41.72L4.70399 15.9262L7.34069 15.1105L25.1082 19.6233L37.2233 5.8655L39.86 5.04977L47.84 30.8436ZM38.53 0.750803L3.37399 11.6273C0.935043 12.3818 -0.428657 14.8999 0.309494 17.2858L8.2895 43.0796C8.64224 44.2197 9.44352 45.1699 10.5171 45.7212C11.5906 46.2724 12.8485 46.3796 14.014 46.019L49.17 35.1425C50.3355 34.7819 51.3131 33.9832 51.8878 32.922C52.4625 31.8609 52.5872 30.6242 52.2345 29.484L44.2545 3.69021C43.9017 2.55005 43.1004 1.59983 42.0269 1.04859C40.9533 0.497342 39.6955 0.390226 38.53 0.750803Z" fill="#00D1B4"/>
</svg>
