<svg width="49" height="52" viewBox="0 0 49 52" fill="none" xmlns="http://www.w3.org/2000/svg">
<path d="M24.2596 0.360661C11.0017 0.516407 0.395833 12.1007 0.561942 26.2408C0.728051 40.3809 11.6046 51.7129 24.861 51.5571C38.1189 51.4014 48.7247 39.8171 48.5586 25.677C48.3925 11.5368 37.516 0.204934 24.2596 0.360661ZM36.2527 17.7595L32.5464 37.6039C32.2718 39.0111 31.4924 39.3605 30.3915 38.7127L24.3365 34.0665L21.4777 37.0732C21.1628 37.4172 20.8952 37.7094 20.2759 37.7167L20.6252 31.1982L31.6175 20.3526C32.0968 19.8928 31.5023 19.6421 30.8682 20.1037L17.2356 29.4921L11.2903 27.5898C9.99857 27.1722 9.95811 26.2328 11.5373 25.5536L34.563 15.7642C35.6327 15.3387 36.5791 16.0197 36.2511 17.7578L36.2527 17.7595Z" fill="#00D1B4"/>
</svg>
